<svg width="127" height="89" xmlns="http://www.w3.org/2000/svg" xmlns:svg="http://www.w3.org/2000/svg" xmlns:xlink="http://www.w3.org/1999/xlink">
 <!-- Created with SVG-edit - https://github.com/SVG-Edit/svgedit-->
 <defs>
  <symbol height="225.000000pt" id="svg_9" preserveAspectRatio="xMidYMid meet" viewBox="0 0 225.000000 225.000000" width="225.000000pt" xmlns="http://www.w3.org/2000/svg">
   <g fill="#000000" id="svg_11" transform="translate(0.000000,225.000000) scale(0.100000,-0.100000)">
    <path d="m957,1855c-9,-8 -18,-28 -22,-45l-7,-30l-254,0c-241,0 -255,-1 -274,-20c-20,-20 -20,-33 -20,-635c0,-602 0,-615 20,-635c19,-19 33,-20 274,-20l254,0l5,-29c11,-52 29,-61 130,-61c104,0 131,11 142,60c6,29 9,30 61,30l54,0l0,655l0,655l-54,0c-52,0 -55,1 -61,30c-11,49 -38,60 -142,60c-68,0 -95,-4 -106,-15zm93,-730l0,-705l-35,0l-35,0l0,705l0,705l35,0l35,0l0,-705zm110,685c10,-18 8,-20 -30,-20c-33,0 -40,3 -40,20c0,16 7,20 30,20c19,0 33,-7 40,-20zm-230,-524l0,-304l-122,1l-123,2l-3,303l-2,302l125,0l125,0l0,-304zm238,2l-3,-303l-35,0l-35,0l-3,303l-2,302l40,0l40,0l-2,-302zm-238,-573l0,-55l-125,0l-125,0l0,55l0,55l125,0l125,0l0,-55zm240,0l0,-55l-40,0l-40,0l0,55l0,55l40,0l40,0l0,-55zm-10,-275c-7,-13 -21,-20 -40,-20c-23,0 -30,4 -30,20c0,17 7,20 40,20c38,0 40,-2 30,-20z" id="svg_12"/>
    <path d="m730,1501c0,-35 3,-41 21,-41c17,0 20,5 17,37c-2,27 -8,39 -20,41c-15,3 -18,-4 -18,-37z" id="svg_13"/>
    <path d="m734,1107c-10,-27 0,-72 16,-72c11,0 15,11 15,39c0,40 -20,61 -31,33z" id="svg_14"/>
    <path d="m1735,1780c-33,-12 -41,-29 -74,-155c-18,-66 -86,-320 -152,-565c-65,-245 -119,-455 -119,-465c0,-27 41,-123 54,-128c6,-3 36,14 65,37l54,41l59,220c104,391 148,556 199,741c53,195 57,225 34,244c-23,19 -98,38 -120,30zm87,-58c13,-13 -20,-152 -36,-152c-26,0 -86,22 -86,31c0,5 7,39 16,76l17,65l40,-5c22,-3 44,-10 49,-15zm-118,-180c4,-6 -199,-787 -230,-884c-7,-24 -37,-24 -30,0c27,94 58,209 140,518c53,199 96,364 96,368c0,9 18,7 24,-2zm76,-19c0,-8 -30,-121 -110,-418c-21,-77 -59,-220 -85,-317c-28,-103 -52,-175 -57,-172c-15,10 -8,40 113,493c76,281 117,421 126,421c7,0 13,-3 13,-7z" id="svg_15"/>
   </g>
  </symbol>
 </defs>
 <g class="layer">
  <title>Layer 1</title>
  <use fill="#00ff00" id="svg_10" transform="matrix(0.625055 0 0 0.433457 -29.9255 -21.2408)" x="0" xlink:href="#svg_9" y="0"/>
 </g>
</svg>